<svg xmlns="http://www.w3.org/2000/svg" version="1.1" xmlns:xlink="http://www.w3.org/1999/xlink" viewBox="0 0 200 200"><rect width="200" height="200" fill="url('#gradient')"></rect><defs><linearGradient id="gradient" gradientTransform="rotate(45 0.5 0.5)"><stop offset="0%" stop-color="#010405"></stop><stop offset="100%" stop-color="#000000"></stop></linearGradient></defs><g><g fill="#7afd83" transform="matrix(3.9823571259188997,0,0,3.9823571259188997,13.722195695858304,128.313934563471)" stroke="#ffffff" stroke-width="0"><path d="M6.85 0L1.07 0L1.07-14.22L6.18-14.22Q8.93-14.22 10.36-13.21Q11.79-12.21 11.79-10.29L11.79-10.29Q11.79-9.19 11.28-8.41Q10.77-7.63 9.79-7.26L9.79-7.26Q10.90-6.96 11.49-6.16Q12.09-5.36 12.09-4.21L12.09-4.21Q12.09-2.12 10.77-1.07Q9.44-0.02 6.85 0L6.85 0ZM6.90-6.04L4.50-6.04L4.50-2.64L6.75-2.64Q7.68-2.64 8.17-3.06Q8.67-3.49 8.67-4.26L8.67-4.26Q8.67-6.04 6.90-6.04L6.90-6.04ZM4.50-11.57L4.50-8.29L6.29-8.29Q7.41-8.30 7.89-8.70Q8.37-9.10 8.37-9.88L8.37-9.88Q8.37-10.78 7.85-11.18Q7.33-11.57 6.18-11.57L6.18-11.57L4.50-11.57ZM18.65 0L13.97 0L13.97-14.22L18.55-14.22Q20.44-14.22 21.94-13.36Q23.45-12.51 24.29-10.95Q25.14-9.39 25.15-7.46L25.15-7.46L25.15-6.81Q25.15-4.85 24.32-3.31Q23.50-1.76 22.00-0.88Q20.50-0.01 18.65 0L18.65 0ZM18.55-11.57L17.40-11.57L17.40-2.64L18.59-2.64Q20.07-2.64 20.86-3.69Q21.65-4.74 21.65-6.81L21.65-6.81L21.65-7.42Q21.65-9.48 20.86-10.53Q20.07-11.57 18.55-11.57L18.55-11.57ZM26.90-14.22L31.41-14.22L34.58-4.33L37.74-14.22L42.26-14.22L42.26 0L38.82 0L38.82-3.32L39.15-10.12L35.71 0L33.45 0L30-10.13L30.33-3.32L30.33 0L26.90 0L26.90-14.22Z"></path></g></g></svg>