<svg version="1.1" id="Layer_1" xmlns="http://www.w3.org/2000/svg" xmlns:xlink="http://www.w3.org/1999/xlink" x="0px" y="0px"
	 width="100%" viewBox="0 0 500 500" enable-background="new 0 0 500 500" xml:space="preserve">
<path fill="#000000" opacity="1.000000" stroke="none" 
	d="
M284.000000,501.000000 
	C189.333359,501.000000 95.166710,501.000000 1.000051,501.000000 
	C1.000034,334.333405 1.000034,167.666794 1.000017,1.000140 
	C167.666565,1.000093 334.333130,1.000093 500.999756,1.000047 
	C500.999847,167.666519 500.999847,334.333038 500.999939,500.999786 
	C428.833344,501.000000 356.666656,501.000000 284.000000,501.000000 
M259.079224,87.979317 
	C253.054749,87.999977 247.030258,88.020630 240.103561,87.995125 
	C230.723892,89.640808 221.344238,91.286491 211.143448,92.945633 
	C207.095947,93.987137 203.048462,95.028641 198.295609,96.230232 
	C194.139908,97.803169 189.813980,99.040291 185.873474,101.037727 
	C181.385117,103.312874 177.240601,106.266357 172.197220,108.986748 
	C166.462631,112.321907 160.728043,115.657066 154.346817,119.205566 
	C145.057083,127.899475 135.480438,136.314133 126.615654,145.421692 
	C122.956085,149.181473 120.824516,154.428528 117.323135,159.185730 
	C115.228607,161.629532 112.627838,163.800720 111.136711,166.569489 
	C107.051895,174.154327 102.866760,181.774231 99.807785,189.794647 
	C97.293678,196.386444 95.038429,203.553131 94.937378,210.498032 
	C94.657486,229.734940 95.827072,248.988083 95.901352,268.236847 
	C95.945999,279.809113 95.350113,291.263763 97.746666,302.806061 
	C101.040916,318.671722 107.704651,332.629089 118.352432,345.571167 
	C126.326286,359.150024 137.780487,369.438782 150.395309,379.544159 
	C159.279419,385.340332 168.163528,391.136536 177.711197,397.172272 
	C185.142288,400.108887 192.573380,403.045502 200.613663,406.378571 
	C205.393387,407.628052 210.173126,408.877533 215.613785,410.476807 
	C221.084839,411.279602 226.555878,412.082397 232.835892,413.095032 
	C243.868607,414.983643 254.935989,415.104248 266.833130,413.738892 
	C270.562164,413.132355 274.291168,412.525787 278.806213,411.916351 
	C281.201202,411.284454 283.623230,410.739624 285.986511,410.005615 
	C296.407501,406.769104 306.811584,403.478088 317.900909,400.014893 
	C323.282410,397.135712 328.663910,394.256500 334.715332,391.109741 
	C342.177002,385.426514 349.638641,379.743286 357.774994,373.932922 
	C365.459412,365.942627 373.143799,357.952332 381.356812,349.534698 
	C386.564728,341.020752 391.772644,332.506836 397.407898,323.452850 
	C411.656738,295.234650 417.024384,265.397705 413.553436,233.997162 
	C411.209961,212.796341 405.413544,192.637894 394.787170,173.459351 
	C394.540771,173.225250 394.294373,172.991150 393.898224,172.105209 
	C392.739410,170.122803 391.580597,168.140396 390.172791,165.580109 
	C387.494415,161.705307 384.816040,157.830505 381.875031,153.322464 
	C373.289398,144.348572 364.703766,135.374680 355.776428,125.883293 
	C348.537506,120.765762 341.298553,115.648239 333.599579,110.094711 
	C326.738007,106.713257 319.876404,103.331795 312.423370,99.532051 
	C302.619751,96.676865 292.816162,93.821686 282.316010,90.608620 
	C274.881866,89.767097 267.447754,88.925568 259.079224,87.979317 
z"/>
<path fill="#383838" opacity="1.000000" stroke="none" 
	d="
M317.221771,400.206787 
	C306.811584,403.478088 296.407501,406.769104 285.986511,410.005615 
	C283.623230,410.739624 281.201202,411.284454 278.540833,411.599548 
	C284.134705,404.444183 282.520477,396.878571 280.461639,389.244141 
	C279.571503,385.943420 278.156555,382.612762 278.117218,379.282318 
	C277.891266,360.155609 277.807953,341.022125 278.075043,321.896515 
	C278.256836,308.878723 276.172852,295.650452 280.935089,282.572815 
	C280.940247,281.934814 280.947510,281.679443 281.163940,281.191650 
	C295.141510,272.560913 296.905396,252.136551 285.437866,241.879120 
	C284.560028,241.093903 283.942932,239.311798 284.149811,238.163315 
	C284.606476,235.627869 285.600525,233.177032 286.491333,230.733978 
	C291.454712,217.121277 281.903442,202.405945 267.440552,202.000519 
	C255.644943,201.669891 243.830704,202.003311 232.231110,201.747772 
	C234.660217,200.992157 236.882950,200.531082 239.562317,200.077179 
	C247.032608,200.064056 254.046249,200.043762 261.430023,200.117172 
	C266.760895,199.254181 271.721649,198.297470 276.643555,197.348251 
	C276.379242,193.517487 276.043549,190.874649 276.038605,188.231201 
	C275.996399,165.736084 275.994934,143.240799 276.048035,120.745720 
	C276.052704,118.776283 275.862762,116.288300 276.913422,114.932549 
	C280.682617,110.068832 279.618439,104.528137 280.146790,99.127800 
	C280.419464,96.340584 282.014801,93.682785 283.012543,90.966507 
	C292.816162,93.821686 302.619751,96.676865 312.716278,100.213211 
	C313.139282,106.875198 313.437622,112.860741 313.270905,118.833282 
	C313.233276,120.180420 311.572174,122.624794 310.663361,122.622459 
	C303.995270,122.605331 303.941620,126.823341 303.954315,131.714233 
	C304.042328,165.643555 303.995087,199.573196 304.014648,233.502731 
	C304.015900,235.659668 304.266602,237.815430 304.310913,239.973572 
	C304.502045,249.282196 304.661011,258.591461 304.822693,267.900665 
	C304.828430,268.229279 304.714813,268.558289 304.697571,268.889221 
	C304.464508,273.363464 304.277679,277.840485 303.999329,282.311829 
	C303.751587,286.291077 305.420441,288.163971 309.531097,288.017944 
	C314.016083,287.858643 318.511017,287.979156 323.173584,288.106934 
	C323.572083,288.412170 323.792328,288.595795 323.985107,288.886322 
	C323.963959,288.985626 323.998657,289.182587 323.540161,289.255737 
	C316.112488,289.374695 309.139557,289.573975 302.175598,289.404968 
	C298.400848,289.313354 297.074524,290.464905 296.949524,294.465088 
	C296.797363,299.333069 298.410736,301.042572 303.169067,300.560852 
	C306.289001,300.245026 309.470428,300.586823 312.622162,300.524780 
	C321.389130,300.352325 330.154968,300.122772 338.684082,300.207184 
	C336.767883,300.990173 335.106659,301.816193 333.406219,301.906921 
	C329.281342,302.127045 325.138214,302.004974 320.546906,302.014435 
	C309.601990,301.974274 308.188080,302.623108 308.124298,309.451660 
	C307.930511,330.202148 308.044525,350.955444 308.027832,371.707672 
	C308.025330,374.808502 309.188904,376.944427 312.592896,376.943542 
	C317.126953,376.942322 318.184753,379.631378 317.993164,383.476624 
	C317.715363,389.052307 317.476959,394.629974 317.221771,400.206787 
M282.913544,202.134827 
	C282.913544,202.134827 283.106903,201.877380 283.106903,201.877380 
	C283.106903,201.877380 282.829041,202.036377 282.913544,202.134827 
z"/>
<path fill="#0C0C0C" opacity="1.000000" stroke="none" 
	d="
M149.977722,379.025116 
	C137.780487,369.438782 126.326286,359.150024 118.333916,345.094391 
	C118.631317,343.188232 119.218002,341.759003 119.218636,340.329468 
	C119.222389,331.878448 119.045792,323.427368 119.040924,314.976227 
	C119.039955,313.292084 119.520500,311.607666 119.779015,309.923370 
	C120.324654,309.682190 120.870293,309.441010 121.415932,309.199829 
	C127.196785,315.787842 129.829956,325.165680 138.295135,330.705353 
	C138.295135,277.190338 138.295135,224.668503 138.295135,172.146683 
	C137.685471,171.866989 137.075790,171.587311 136.466125,171.307632 
	C131.114273,178.830322 125.762405,186.353027 120.410545,193.875732 
	C119.241463,191.350876 119.088943,189.111877 119.005203,186.870316 
	C118.658142,177.580353 118.331894,168.289597 117.997993,158.999146 
	C120.824516,154.428528 122.956085,149.181473 126.615654,145.421692 
	C135.480438,136.314133 145.057083,127.899475 154.670837,119.554253 
	C155.114243,125.539330 155.123398,131.180771 155.381241,136.810822 
	C155.695709,143.676880 156.721359,144.216507 163.009872,141.284973 
	C163.764084,140.933395 164.532303,140.604584 165.314301,140.321182 
	C169.472778,138.814102 170.880783,139.894867 170.791031,144.185181 
	C170.477875,159.157211 170.170074,174.130264 170.020737,189.104507 
	C169.933029,197.898010 168.268341,207.147919 175.640839,214.062027 
	C172.699875,212.950104 170.132538,211.871109 167.531204,210.777832 
	C166.962830,214.257370 166.501831,217.079620 165.860458,220.189102 
	C162.201782,226.386459 162.973709,227.974686 171.988586,233.455902 
	C167.624588,237.474716 167.624588,237.474716 170.908981,241.906281 
	C165.326324,245.095016 165.337494,245.182495 171.188873,248.862991 
	C171.188873,251.683502 171.188873,254.056320 170.999298,256.662628 
	C170.116043,257.268372 169.422363,257.640656 168.460999,258.176788 
	C167.850449,259.084381 167.507599,259.828094 167.296295,260.893494 
	C167.021484,263.727844 166.615112,266.240540 166.080124,269.147217 
	C165.744980,271.343231 165.356125,273.145599 165.359375,274.947235 
	C165.404388,299.882202 165.538574,324.817017 165.540207,349.751892 
	C165.540390,352.582245 164.869431,355.412628 164.509674,358.243011 
	C161.645096,357.194824 158.739700,356.244812 155.925812,355.074707 
	C152.016388,353.449066 150.186737,354.378571 150.073517,358.644318 
	C149.893280,365.433960 149.995163,372.231140 149.977722,379.025116 
z"/>
<path fill="#060505" opacity="1.000000" stroke="none" 
	d="
M117.660568,159.092438 
	C118.331894,168.289597 118.658142,177.580353 119.005203,186.870316 
	C119.088943,189.111877 119.241463,191.350876 120.410545,193.875732 
	C125.762405,186.353027 131.114273,178.830322 136.466125,171.307632 
	C137.075790,171.587311 137.685471,171.866989 138.295135,172.146683 
	C138.295135,224.668503 138.295135,277.190338 138.295135,330.705353 
	C129.829956,325.165680 127.196785,315.787842 121.415932,309.199829 
	C120.870293,309.441010 120.324654,309.682190 119.779015,309.923370 
	C119.520500,311.607666 119.039955,313.292084 119.040924,314.976227 
	C119.045792,323.427368 119.222389,331.878448 119.218636,340.329468 
	C119.218002,341.759003 118.631317,343.188232 118.148590,344.809021 
	C107.704651,332.629089 101.040916,318.671722 97.746666,302.806061 
	C95.350113,291.263763 95.945999,279.809113 95.901352,268.236847 
	C95.827072,248.988083 94.657486,229.734940 94.937378,210.498032 
	C95.038429,203.553131 97.293678,196.386444 99.807785,189.794647 
	C102.866760,181.774231 107.051895,174.154327 111.136711,166.569489 
	C112.627838,163.800720 115.228607,161.629532 117.660568,159.092438 
z"/>
<path fill="#232323" opacity="1.000000" stroke="none" 
	d="
M239.105667,200.070023 
	C236.882950,200.531082 234.660217,200.992157 232.187988,202.212112 
	C231.938461,229.833969 231.938461,256.696960 231.938461,284.026520 
	C237.672684,284.026520 242.796158,284.175110 247.908081,283.995209 
	C258.162598,283.634216 268.410858,283.093842 278.391205,282.867462 
	C273.082458,284.097626 268.044220,285.087860 262.537140,286.063599 
	C255.919327,286.040741 249.768265,285.928711 243.621841,286.050446 
	C235.991959,286.201630 235.012039,287.257874 235.009155,294.773468 
	C234.998367,322.860321 235.006134,350.947174 235.002365,379.034027 
	C235.001801,383.161926 235.507828,387.370361 232.010559,390.690643 
	C231.347076,391.320587 231.355499,392.866943 231.383606,393.982147 
	C231.542480,400.284546 231.801819,406.584442 232.026947,412.885193 
	C226.555878,412.082397 221.084839,411.279602 215.203033,409.880615 
	C214.459488,403.990479 213.840012,398.690674 213.949371,393.405884 
	C213.987671,391.554840 215.741058,389.692139 216.853348,387.924133 
	C217.890472,386.275635 220.107666,384.749146 220.112885,383.163330 
	C220.220718,350.428497 219.911148,317.691925 220.090057,284.957886 
	C220.157410,272.633240 217.938507,260.044891 223.297363,247.843307 
	C223.946091,244.638474 224.299850,241.675232 224.615997,238.366852 
	C223.206818,236.793991 221.738724,235.655548 220.494034,234.310425 
	C219.488541,233.223770 217.737091,231.265488 218.049332,230.756165 
	C222.572601,223.378036 219.744644,215.407791 219.846558,207.818405 
	C220.228836,179.353683 220.063507,150.880325 219.885696,122.411560 
	C219.869797,119.867180 218.397186,117.286453 217.393707,114.806534 
	C216.402466,112.356865 214.658447,110.119568 214.113846,107.601151 
	C213.071701,102.781929 212.646042,97.829399 211.964569,92.932175 
	C221.344238,91.286491 230.723892,89.640808 240.456985,88.419662 
	C240.788208,94.107117 240.466217,99.390427 240.822266,104.627640 
	C241.236115,110.715240 242.829544,116.756447 242.891647,122.828224 
	C243.140564,147.156982 242.994492,171.489792 242.994492,196.214691 
	C242.169769,197.032318 240.637711,198.551163 239.105667,200.070023 
z"/>
<path fill="#434343" opacity="1.000000" stroke="none" 
	d="
M321.002441,302.020782 
	C325.138214,302.004974 329.281342,302.127045 333.406219,301.906921 
	C335.106659,301.816193 336.767883,300.990173 338.630615,299.765228 
	C338.850464,296.100250 338.886627,293.168640 338.591492,289.989014 
	C333.508881,289.423004 328.757568,289.105011 324.006256,288.786987 
	C323.792328,288.595795 323.572083,288.412170 323.173157,287.640747 
	C323.000549,241.975769 323.024200,196.906143 322.963898,151.836609 
	C322.957703,147.198929 322.478699,142.559967 322.167206,137.925095 
	C321.848267,133.179703 323.064667,132.117554 327.541901,133.360123 
	C328.662994,133.671249 329.754059,134.099380 330.884186,134.367447 
	C333.385406,134.960709 334.651367,134.173126 334.550903,131.354416 
	C334.303680,124.416161 334.213165,117.472313 334.059631,110.530716 
	C341.298553,115.648239 348.537506,120.765762 355.860291,126.562065 
	C355.944122,135.885132 355.944122,144.529434 355.944122,153.173737 
	C355.362885,153.318985 354.781647,153.464233 354.200439,153.609497 
	C351.640656,151.879791 349.123505,150.082214 346.509033,148.439636 
	C343.939362,146.825226 341.867950,147.458389 341.248627,150.479462 
	C340.585022,153.716431 340.060181,157.050232 340.053253,160.342987 
	C339.972626,198.667465 339.977325,236.992188 340.035889,275.316742 
	C340.042236,279.464294 340.993469,283.645599 340.688782,287.750580 
	C340.161896,294.849213 345.974426,302.081879 340.239105,309.060944 
	C339.891083,309.484406 340.041626,310.357086 340.041138,311.020813 
	C340.032135,323.684418 339.951202,336.349213 340.132660,349.010223 
	C340.157959,350.775299 341.056610,353.407135 342.333405,354.027527 
	C343.607727,354.646759 346.005463,353.514709 347.659729,352.662994 
	C350.288574,351.309418 352.708923,349.550934 355.217468,347.963745 
	C355.641815,348.281342 356.066193,348.598938 356.490540,348.916534 
	C356.079803,355.494873 355.517792,362.069580 355.358093,368.653992 
	C355.314758,370.440887 356.486298,372.257202 357.100281,374.060059 
	C349.638641,379.743286 342.177002,385.426514 334.364929,390.801392 
	C333.332336,384.427338 332.490082,378.373871 332.025146,372.291595 
	C331.723969,368.351959 329.737244,368.670227 326.933319,369.486572 
	C320.624451,371.323364 319.948395,370.863525 320.030945,364.338013 
	C320.293854,343.564819 320.670044,322.793091 321.002441,302.020782 
z"/>
<path fill="#484848" opacity="1.000000" stroke="none" 
	d="
M357.437622,373.996460 
	C356.486298,372.257202 355.314758,370.440887 355.358093,368.653992 
	C355.517792,362.069580 356.079803,355.494873 356.490540,348.916534 
	C356.066193,348.598938 355.641815,348.281342 355.217468,347.963745 
	C352.708923,349.550934 350.288574,351.309418 347.659729,352.662994 
	C346.005463,353.514709 343.607727,354.646759 342.333405,354.027527 
	C341.056610,353.407135 340.157959,350.775299 340.132660,349.010223 
	C339.951202,336.349213 340.032135,323.684418 340.041138,311.020813 
	C340.041626,310.357086 339.891083,309.484406 340.239105,309.060944 
	C345.974426,302.081879 340.161896,294.849213 340.688782,287.750580 
	C340.993469,283.645599 340.042236,279.464294 340.035889,275.316742 
	C339.977325,236.992188 339.972626,198.667465 340.053253,160.342987 
	C340.060181,157.050232 340.585022,153.716431 341.248627,150.479462 
	C341.867950,147.458389 343.939362,146.825226 346.509033,148.439636 
	C349.123505,150.082214 351.640656,151.879791 354.200439,153.609497 
	C354.781647,153.464233 355.362885,153.318985 355.944122,153.173737 
	C355.944122,144.529434 355.944122,135.885132 356.031128,126.820816 
	C364.703766,135.374680 373.289398,144.348572 381.592133,153.651123 
	C376.752075,153.624496 375.496643,156.353836 375.622925,160.209564 
	C375.693634,162.368561 376.226562,164.525620 376.166962,166.672867 
	C376.052460,170.795975 375.664398,174.911469 375.333649,179.872665 
	C373.439606,178.462555 372.393494,177.911255 371.646881,177.088272 
	C368.518250,173.639633 365.558868,170.034134 362.356781,166.657501 
	C361.450806,165.702179 359.931580,165.328445 358.693604,164.687973 
	C358.140228,165.984909 357.514801,167.257568 357.066101,168.589752 
	C356.863586,169.191025 357.004059,169.910843 357.004059,170.576874 
	C357.002319,224.535461 356.994904,278.494049 357.032227,332.452606 
	C357.033539,334.318329 357.483398,336.183716 357.724182,338.049286 
	C358.244110,338.303314 358.764008,338.557343 359.283936,338.811371 
	C364.389404,333.080505 369.494873,327.349670 374.600342,321.618805 
	C375.073547,321.783173 375.546753,321.947571 376.019989,322.111969 
	C376.196716,324.310547 376.539062,326.510834 376.515900,328.707306 
	C376.466766,333.359070 376.032623,338.013031 376.132355,342.657990 
	C376.201141,345.862854 376.866486,349.076263 380.828217,349.962036 
	C373.143799,357.952332 365.459412,365.942627 357.437622,373.996460 
z"/>
<path fill="#515151" opacity="1.000000" stroke="none" 
	d="
M394.886475,173.966339 
	C405.413544,192.637894 411.209961,212.796341 413.553436,233.997162 
	C417.024384,265.397705 411.656738,295.234650 396.887268,323.671204 
	C394.771790,324.593353 393.176971,325.297180 390.304565,326.564819 
	C390.870483,311.687775 391.428711,297.012787 391.986938,282.337830 
	C391.368195,282.220734 390.749420,282.103638 390.130646,281.986572 
	C389.055939,284.457184 387.994751,286.933807 386.904053,289.397339 
	C383.274902,297.594360 379.736115,305.834229 375.921021,313.943970 
	C375.076874,315.738312 373.241211,317.066193 371.862122,318.608856 
	C371.442841,318.329803 371.023590,318.050751 370.604309,317.771698 
	C370.604309,272.935913 370.604309,228.100113 370.604309,181.820908 
	C381.781372,192.519852 383.127563,206.958679 390.686890,218.141190 
	C391.494446,216.674820 391.995789,215.289978 391.931671,213.931854 
	C391.462708,203.997986 390.755127,194.074219 390.380646,184.137543 
	C390.155151,178.153381 390.392456,172.151764 390.421783,166.157990 
	C391.580597,168.140396 392.739410,170.122803 394.101013,172.641235 
	C394.485443,173.449600 394.679657,173.712616 394.886475,173.966339 
z"/>
<path fill="#4D4D4D" opacity="1.000000" stroke="none" 
	d="
M390.297302,165.869049 
	C390.392456,172.151764 390.155151,178.153381 390.380646,184.137543 
	C390.755127,194.074219 391.462708,203.997986 391.931671,213.931854 
	C391.995789,215.289978 391.494446,216.674820 390.686890,218.141190 
	C383.127563,206.958679 381.781372,192.519852 370.604309,181.820908 
	C370.604309,228.100113 370.604309,272.935913 370.604309,317.771698 
	C371.023590,318.050751 371.442841,318.329803 371.862122,318.608856 
	C373.241211,317.066193 375.076874,315.738312 375.921021,313.943970 
	C379.736115,305.834229 383.274902,297.594360 386.904053,289.397339 
	C387.994751,286.933807 389.055939,284.457184 390.130646,281.986572 
	C390.749420,282.103638 391.368195,282.220734 391.986938,282.337830 
	C391.428711,297.012787 390.870483,311.687775 390.304565,326.564819 
	C393.176971,325.297180 394.771790,324.593353 396.673584,323.941223 
	C391.772644,332.506836 386.564728,341.020752 381.092529,349.748352 
	C376.866486,349.076263 376.201141,345.862854 376.132355,342.657990 
	C376.032623,338.013031 376.466766,333.359070 376.515900,328.707306 
	C376.539062,326.510834 376.196716,324.310547 376.019989,322.111969 
	C375.546753,321.947571 375.073547,321.783173 374.600342,321.618805 
	C369.494873,327.349670 364.389404,333.080505 359.283936,338.811371 
	C358.764008,338.557343 358.244110,338.303314 357.724182,338.049286 
	C357.483398,336.183716 357.033539,334.318329 357.032227,332.452606 
	C356.994904,278.494049 357.002319,224.535461 357.004059,170.576874 
	C357.004059,169.910843 356.863586,169.191025 357.066101,168.589752 
	C357.514801,167.257568 358.140228,165.984909 358.693604,164.687973 
	C359.931580,165.328445 361.450806,165.702179 362.356781,166.657501 
	C365.558868,170.034134 368.518250,173.639633 371.646881,177.088272 
	C372.393494,177.911255 373.439606,178.462555 375.333649,179.872665 
	C375.664398,174.911469 376.052460,170.795975 376.166962,166.672867 
	C376.226562,164.525620 375.693634,162.368561 375.622925,160.209564 
	C375.496643,156.353836 376.752075,153.624496 381.723450,153.967743 
	C384.816040,157.830505 387.494415,161.705307 390.297302,165.869049 
z"/>
<path fill="#2A2A2A" opacity="1.000000" stroke="none" 
	d="
M232.431427,412.990112 
	C231.801819,406.584442 231.542480,400.284546 231.383606,393.982147 
	C231.355499,392.866943 231.347076,391.320587 232.010559,390.690643 
	C235.507828,387.370361 235.001801,383.161926 235.002365,379.034027 
	C235.006134,350.947174 234.998367,322.860321 235.009155,294.773468 
	C235.012039,287.257874 235.991959,286.201630 243.621841,286.050446 
	C249.768265,285.928711 255.919327,286.040741 262.534912,286.524017 
	C263.000031,318.585693 262.969543,350.172485 263.051117,381.759003 
	C263.057800,384.345123 263.706940,386.955872 264.271423,389.507904 
	C265.075531,393.143311 266.627991,396.700867 266.854004,400.353973 
	C267.128082,404.784088 266.353333,409.279083 266.032379,413.746002 
	C254.935989,415.104248 243.868607,414.983643 232.431427,412.990112 
z"/>
<path fill="#3D3D3D" opacity="1.000000" stroke="none" 
	d="
M333.829620,110.312714 
	C334.213165,117.472313 334.303680,124.416161 334.550903,131.354416 
	C334.651367,134.173126 333.385406,134.960709 330.884186,134.367447 
	C329.754059,134.099380 328.662994,133.671249 327.541901,133.360123 
	C323.064667,132.117554 321.848267,133.179703 322.167206,137.925095 
	C322.478699,142.559967 322.957703,147.198929 322.963898,151.836609 
	C323.024200,196.906143 323.000549,241.975769 323.001221,287.511536 
	C318.511017,287.979156 314.016083,287.858643 309.531097,288.017944 
	C305.420441,288.163971 303.751587,286.291077 303.999329,282.311829 
	C304.277679,277.840485 304.464508,273.363464 304.697571,268.889221 
	C304.714813,268.558289 304.828430,268.229279 304.822693,267.900665 
	C304.661011,258.591461 304.502045,249.282196 304.310913,239.973572 
	C304.266602,237.815430 304.015900,235.659668 304.014648,233.502731 
	C303.995087,199.573196 304.042328,165.643555 303.954315,131.714233 
	C303.941620,126.823341 303.995270,122.605331 310.663361,122.622459 
	C311.572174,122.624794 313.233276,120.180420 313.270905,118.833282 
	C313.437622,112.860741 313.139282,106.875198 313.012024,100.422348 
	C319.876404,103.331795 326.738007,106.713257 333.829620,110.312714 
z"/>
<path fill="#151514" opacity="1.000000" stroke="none" 
	d="
M150.186523,379.284637 
	C149.995163,372.231140 149.893280,365.433960 150.073517,358.644318 
	C150.186737,354.378571 152.016388,353.449066 155.925812,355.074707 
	C158.739700,356.244812 161.645096,357.194824 164.509674,358.243011 
	C164.869431,355.412628 165.540390,352.582245 165.540207,349.751892 
	C165.538574,324.817017 165.404388,299.882202 165.359375,274.947235 
	C165.356125,273.145599 165.744980,271.343231 166.323471,269.205688 
	C168.138000,271.455780 170.036835,271.133698 172.406067,270.092194 
	C182.791656,265.526764 193.240356,261.104828 203.571732,256.964050 
	C202.533691,258.168213 201.716934,259.270111 200.624527,259.870209 
	C195.876648,262.478485 191.048462,264.940521 187.445496,266.828857 
	C188.443954,271.090912 189.869858,274.399994 189.895615,277.719940 
	C190.136047,308.716034 190.082825,339.714325 190.277908,370.710968 
	C190.300598,374.319214 188.494980,375.095642 185.686249,374.947876 
	C181.254974,374.714752 179.759888,376.888000 179.976578,381.030701 
	C180.264816,386.540802 180.319687,392.056732 177.047638,396.932709 
	C168.163528,391.136536 159.279419,385.340332 150.186523,379.284637 
z"/>
<path fill="#1B1B1A" opacity="1.000000" stroke="none" 
	d="
M177.379425,397.052490 
	C180.319687,392.056732 180.264816,386.540802 179.976578,381.030701 
	C179.759888,376.888000 181.254974,374.714752 185.686249,374.947876 
	C188.494980,375.095642 190.300598,374.319214 190.277908,370.710968 
	C190.082825,339.714325 190.136047,308.716034 189.895615,277.719940 
	C189.869858,274.399994 188.443954,271.090912 187.445496,266.828857 
	C191.048462,264.940521 195.876648,262.478485 200.624527,259.870209 
	C201.716934,259.270111 202.533691,258.168213 203.682281,256.997864 
	C203.887238,256.698486 203.823380,256.920776 204.102127,256.769653 
	C204.901855,256.249420 205.422836,255.880325 206.202209,255.300781 
	C208.587112,254.202087 210.713593,253.313858 212.691742,252.749054 
	C209.549911,256.325653 205.124786,258.884583 207.312881,264.587494 
	C207.548752,265.202301 206.693344,266.525208 206.007233,267.149139 
	C204.084747,268.897430 204.038803,270.471771 205.243240,272.806549 
	C206.090652,274.449249 205.960403,276.684570 205.970047,278.656738 
	C206.027756,290.469849 206.000153,302.283386 205.999863,314.096802 
	C205.999359,334.562286 205.978302,355.027802 206.015717,375.493225 
	C206.022141,379.006287 205.732025,381.825684 201.573151,383.350281 
	C199.913574,383.958740 198.224991,387.195953 198.261429,389.205475 
	C198.363007,394.806366 199.360657,400.391052 200.004471,405.982117 
	C192.573380,403.045502 185.142288,400.108887 177.379425,397.052490 
z"/>
<path fill="#1B1B1A" opacity="1.000000" stroke="none" 
	d="
M172.946640,108.925011 
	C177.240601,106.266357 181.385117,103.312874 185.873474,101.037727 
	C189.813980,99.040291 194.139908,97.803169 198.505646,96.451324 
	C195.075836,103.138878 197.028809,109.835701 198.042053,116.449417 
	C198.185532,117.385857 199.369797,118.565170 200.329773,118.905167 
	C204.696198,120.451637 205.056274,123.796791 205.042328,127.724754 
	C204.957321,151.679657 204.715805,175.640152 205.147354,199.587585 
	C205.311783,208.712463 203.692291,218.285049 208.682190,226.835373 
	C209.867035,228.865677 211.428986,230.675903 212.458069,232.471268 
	C207.009415,229.767746 201.920197,227.180298 196.914078,224.270279 
	C195.988205,222.728119 195.209015,221.116074 193.925842,220.364807 
	C190.488693,218.352417 186.835571,216.708847 181.485565,214.024231 
	C190.238907,213.283508 188.807373,208.513138 188.127121,203.934402 
	C187.836731,201.979752 188.004959,199.953506 188.004272,197.959778 
	C187.997116,177.020401 187.967148,156.080948 188.021683,135.141708 
	C188.033035,130.784760 187.585983,127.366928 181.720123,128.635452 
	C178.551224,129.320740 176.671768,127.239914 177.169510,124.349358 
	C178.190659,118.419113 177.029465,113.336060 172.946640,108.925011 
z"/>
<path fill="#1F1F1F" opacity="1.000000" stroke="none" 
	d="
M200.309067,406.180359 
	C199.360657,400.391052 198.363007,394.806366 198.261429,389.205475 
	C198.224991,387.195953 199.913574,383.958740 201.573151,383.350281 
	C205.732025,381.825684 206.022141,379.006287 206.015717,375.493225 
	C205.978302,355.027802 205.999359,334.562286 205.999863,314.096802 
	C206.000153,302.283386 206.027756,290.469849 205.970047,278.656738 
	C205.960403,276.684570 206.090652,274.449249 205.243240,272.806549 
	C204.038803,270.471771 204.084747,268.897430 206.007233,267.149139 
	C206.693344,266.525208 207.548752,265.202301 207.312881,264.587494 
	C205.124786,258.884583 209.549911,256.325653 212.970871,252.567078 
	C216.599701,250.736084 219.801056,249.410477 223.002396,248.084885 
	C217.938507,260.044891 220.157410,272.633240 220.090057,284.957886 
	C219.911148,317.691925 220.220718,350.428497 220.112885,383.163330 
	C220.107666,384.749146 217.890472,386.275635 216.853348,387.924133 
	C215.741058,389.692139 213.987671,391.554840 213.949371,393.405884 
	C213.840012,398.690674 214.459488,403.990479 214.872559,409.705688 
	C210.173126,408.877533 205.393387,407.628052 200.309067,406.180359 
z"/>
<path fill="#1F1F1F" opacity="1.000000" stroke="none" 
	d="
M212.817490,232.587341 
	C211.428986,230.675903 209.867035,228.865677 208.682190,226.835373 
	C203.692291,218.285049 205.311783,208.712463 205.147354,199.587585 
	C204.715805,175.640152 204.957321,151.679657 205.042328,127.724754 
	C205.056274,123.796791 204.696198,120.451637 200.329773,118.905167 
	C199.369797,118.565170 198.185532,117.385857 198.042053,116.449417 
	C197.028809,109.835701 195.075836,103.138878 198.858337,96.371284 
	C203.048462,95.028641 207.095947,93.987137 211.554001,92.938904 
	C212.646042,97.829399 213.071701,102.781929 214.113846,107.601151 
	C214.658447,110.119568 216.402466,112.356865 217.393707,114.806534 
	C218.397186,117.286453 219.869797,119.867180 219.885696,122.411560 
	C220.063507,150.880325 220.228836,179.353683 219.846558,207.818405 
	C219.744644,215.407791 222.572601,223.378036 218.049332,230.756165 
	C217.737091,231.265488 219.488541,233.223770 220.494034,234.310425 
	C221.738724,235.655548 223.206818,236.793991 224.287842,238.195618 
	C220.270691,236.442123 216.544098,234.514740 212.817490,232.587341 
z"/>
<path fill="#151514" opacity="1.000000" stroke="none" 
	d="
M172.571930,108.955879 
	C177.029465,113.336060 178.190659,118.419113 177.169510,124.349358 
	C176.671768,127.239914 178.551224,129.320740 181.720123,128.635452 
	C187.585983,127.366928 188.033035,130.784760 188.021683,135.141708 
	C187.967148,156.080948 187.997116,177.020401 188.004272,197.959778 
	C188.004959,199.953506 187.836731,201.979752 188.127121,203.934402 
	C188.807373,208.513138 190.238907,213.283508 181.485565,214.024231 
	C186.835571,216.708847 190.488693,218.352417 193.925842,220.364807 
	C195.209015,221.116074 195.988205,222.728119 196.553116,224.153992 
	C189.410858,220.938522 182.712646,217.516739 176.014450,214.094971 
	C168.268341,207.147919 169.933029,197.898010 170.020737,189.104507 
	C170.170074,174.130264 170.477875,159.157211 170.791031,144.185181 
	C170.880783,139.894867 169.472778,138.814102 165.314301,140.321182 
	C164.532303,140.604584 163.764084,140.933395 163.009872,141.284973 
	C156.721359,144.216507 155.695709,143.676880 155.381241,136.810822 
	C155.123398,131.180771 155.114243,125.539330 154.994141,119.447586 
	C160.728043,115.657066 166.462631,112.321907 172.571930,108.955879 
z"/>
<path fill="#303030" opacity="1.000000" stroke="none" 
	d="
M282.664276,90.787567 
	C282.014801,93.682785 280.419464,96.340584 280.146790,99.127800 
	C279.618439,104.528137 280.682617,110.068832 276.913422,114.932549 
	C275.862762,116.288300 276.052704,118.776283 276.048035,120.745720 
	C275.994934,143.240799 275.996399,165.736084 276.038605,188.231201 
	C276.043549,190.874649 276.379242,193.517487 276.643555,197.348251 
	C271.721649,198.297470 266.760895,199.254181 261.314392,199.743042 
	C260.219452,195.707672 259.065094,192.136963 259.085815,188.573090 
	C259.280548,155.076080 259.676086,121.580231 260.013611,88.084045 
	C267.447754,88.925568 274.881866,89.767097 282.664276,90.787567 
z"/>
<path fill="#303030" opacity="1.000000" stroke="none" 
	d="
M266.432739,413.742432 
	C266.353333,409.279083 267.128082,404.784088 266.854004,400.353973 
	C266.627991,396.700867 265.075531,393.143311 264.271423,389.507904 
	C263.706940,386.955872 263.057800,384.345123 263.051117,381.759003 
	C262.969543,350.172485 263.000031,318.585693 263.003723,286.538513 
	C268.044220,285.087860 273.082458,284.097626 278.469055,282.889343 
	C278.817413,282.671265 278.787628,282.830261 279.146667,282.852966 
	C279.982849,282.902252 280.460022,282.928864 280.937195,282.955505 
	C276.172852,295.650452 278.256836,308.878723 278.075043,321.896515 
	C277.807953,341.022125 277.891266,360.155609 278.117218,379.282318 
	C278.156555,382.612762 279.571503,385.943420 280.461639,389.244141 
	C282.520477,396.878571 284.134705,404.444183 278.147827,411.601013 
	C274.291168,412.525787 270.562164,413.132355 266.432739,413.742432 
z"/>
<path fill="#2A2A2A" opacity="1.000000" stroke="none" 
	d="
M259.546417,88.031677 
	C259.676086,121.580231 259.280548,155.076080 259.085815,188.573090 
	C259.065094,192.136963 260.219452,195.707672 260.944275,199.649338 
	C254.046249,200.043762 247.032608,200.064056 239.562317,200.077179 
	C240.637711,198.551163 242.169769,197.032318 242.994492,196.214691 
	C242.994492,171.489792 243.140564,147.156982 242.891647,122.828224 
	C242.829544,116.756447 241.236115,110.715240 240.822266,104.627640 
	C240.466217,99.390427 240.788208,94.107117 240.908096,88.442741 
	C247.030258,88.020630 253.054749,87.999977 259.546417,88.031677 
z"/>
<path fill="#3D3D3D" opacity="1.000000" stroke="none" 
	d="
M320.546906,302.014435 
	C320.670044,322.793091 320.293854,343.564819 320.030945,364.338013 
	C319.948395,370.863525 320.624451,371.323364 326.933319,369.486572 
	C329.737244,368.670227 331.723969,368.351959 332.025146,372.291595 
	C332.490082,378.373871 333.332336,384.427338 334.029968,390.935150 
	C328.663910,394.256500 323.282410,397.135712 317.561340,400.110840 
	C317.476959,394.629974 317.715363,389.052307 317.993164,383.476624 
	C318.184753,379.631378 317.126953,376.942322 312.592896,376.943542 
	C309.188904,376.944427 308.025330,374.808502 308.027832,371.707672 
	C308.044525,350.955444 307.930511,330.202148 308.124298,309.451660 
	C308.188080,302.623108 309.601990,301.974274 320.546906,302.014435 
z"/>
<path fill="#4D4D4D" opacity="1.000000" stroke="none" 
	d="
M394.836823,173.712845 
	C394.679657,173.712616 394.485443,173.449600 394.175903,172.967163 
	C394.294373,172.991150 394.540771,173.225250 394.836823,173.712845 
z"/>
<path fill="#7FD558" opacity="1.000000" stroke="none" 
	d="
M278.739563,282.649384 
	C268.410858,283.093842 258.162598,283.634216 247.908081,283.995209 
	C242.796158,284.175110 237.672684,284.026520 231.938461,284.026520 
	C231.938461,256.696960 231.938461,229.833969 231.981598,202.506653 
	C243.830704,202.003311 255.644943,201.669891 267.440552,202.000519 
	C281.903442,202.405945 291.454712,217.121277 286.491333,230.733978 
	C285.600525,233.177032 284.606476,235.627869 284.149811,238.163315 
	C283.942932,239.311798 284.560028,241.093903 285.437866,241.879120 
	C296.905396,252.136551 295.141510,272.560913 280.858032,281.319763 
	C279.824524,282.063629 279.306091,282.446960 278.787628,282.830261 
	C278.787628,282.830261 278.817413,282.671265 278.739563,282.649384 
M255.503586,272.444580 
	C259.832458,272.428925 264.165344,272.526581 268.489288,272.372589 
	C276.123077,272.100739 280.818237,267.256989 280.996704,259.672394 
	C281.180328,251.867981 276.510071,246.562347 268.690247,246.264526 
	C261.540924,245.992264 254.371750,246.096512 247.216812,246.266144 
	C246.081512,246.293076 244.022415,247.511459 244.001450,248.226273 
	C243.769302,256.138702 243.855392,264.060455 243.855392,272.447205 
	C247.914856,272.447205 251.210464,272.447205 255.503586,272.444580 
M247.694092,213.007202 
	C246.407333,213.826874 244.053345,214.589233 244.005753,215.475464 
	C243.678574,221.567230 243.833832,227.684875 243.833832,234.351120 
	C251.429581,234.351120 258.384796,234.505783 265.329773,234.305847 
	C271.750244,234.121033 275.753113,229.642960 275.615051,223.289398 
	C275.478516,217.006897 271.658051,213.189270 265.150940,213.053787 
	C259.654968,212.939346 254.155075,213.014847 247.694092,213.007202 
z"/>
<path fill="#7FD558" opacity="1.000000" stroke="none" 
	d="
M338.922791,290.237000 
	C338.886627,293.168640 338.850464,296.100250 338.867798,299.473846 
	C330.154968,300.122772 321.389130,300.352325 312.622162,300.524780 
	C309.470428,300.586823 306.289001,300.245026 303.169067,300.560852 
	C298.410736,301.042572 296.797363,299.333069 296.949524,294.465088 
	C297.074524,290.464905 298.400848,289.313354 302.175598,289.404968 
	C309.139557,289.573975 316.112488,289.374695 323.984070,289.381531 
	C329.565247,289.701813 334.244019,289.969391 338.922791,290.237000 
z"/>
<path fill="#515151" opacity="1.000000" stroke="none" 
	d="
M338.591492,289.988983 
	C334.244019,289.969391 329.565247,289.701813 324.442566,289.308411 
	C323.998657,289.182587 323.963959,288.985626 323.985107,288.886292 
	C328.757568,289.105011 333.508881,289.423004 338.591492,289.988983 
z"/>
<path fill="#303030" opacity="1.000000" stroke="none" 
	d="
M282.871277,202.085602 
	C282.829041,202.036377 283.106903,201.877380 283.106903,201.877380 
	C283.106903,201.877380 282.913544,202.134827 282.871277,202.085602 
z"/>
<path fill="#232323" opacity="1.000000" stroke="none" 
	d="
M279.146667,282.852966 
	C279.306091,282.446960 279.824524,282.063629 280.648865,281.552216 
	C280.947510,281.679443 280.940247,281.934814 280.935089,282.572815 
	C280.460022,282.928864 279.982849,282.902252 279.146667,282.852966 
z"/>
<path fill="#7FD558" opacity="1.000000" stroke="none" 
	d="
M175.640839,214.062027 
	C182.712646,217.516739 189.410858,220.938522 196.470016,224.476593 
	C201.920197,227.180298 207.009415,229.767746 212.458069,232.471252 
	C216.544098,234.514740 220.270691,236.442123 224.325439,238.540741 
	C224.299850,241.675232 223.946091,244.638474 223.297363,247.843307 
	C219.801056,249.410477 216.599701,250.736084 213.119232,252.243652 
	C210.713593,253.313858 208.587112,254.202087 205.882721,255.409821 
	C204.811020,256.126495 204.317200,256.523621 203.823380,256.920776 
	C203.823380,256.920776 203.887238,256.698486 203.776703,256.664673 
	C193.240356,261.104828 182.791656,265.526764 172.406067,270.092194 
	C170.036835,271.133698 168.138000,271.455780 166.452072,268.811707 
	C166.615112,266.240540 167.021484,263.727844 167.528290,260.674408 
	C167.995361,259.426727 168.362015,258.719818 168.728668,258.012939 
	C169.422363,257.640656 170.116043,257.268372 171.382690,256.652771 
	C183.252350,251.921890 194.549042,247.434341 207.016571,242.481689 
	C196.282272,237.647751 186.656738,233.312622 177.030746,228.978470 
	C172.538742,226.955902 167.083481,226.100555 166.040817,219.901886 
	C166.501831,217.079620 166.962830,214.257370 167.531204,210.777832 
	C170.132538,211.871109 172.699875,212.950104 175.640839,214.062027 
z"/>
<path fill="#151514" opacity="1.000000" stroke="none" 
	d="
M165.860458,220.189102 
	C167.083481,226.100555 172.538742,226.955902 177.030746,228.978470 
	C186.656738,233.312622 196.282272,237.647751 207.016571,242.481689 
	C194.549042,247.434341 183.252350,251.921890 171.572266,256.419281 
	C171.188873,254.056320 171.188873,251.683502 171.188873,248.862991 
	C165.337494,245.182495 165.326324,245.095016 170.908981,241.906281 
	C167.624588,237.474716 167.624588,237.474716 171.988586,233.455902 
	C162.973709,227.974686 162.201782,226.386459 165.860458,220.189102 
z"/>
<path fill="#151514" opacity="1.000000" stroke="none" 
	d="
M168.460999,258.176788 
	C168.362015,258.719818 167.995361,259.426727 167.396729,260.352722 
	C167.507599,259.828094 167.850449,259.084381 168.460999,258.176788 
z"/>
<path fill="#151514" opacity="1.000000" stroke="none" 
	d="
M204.102127,256.769653 
	C204.317200,256.523621 204.811020,256.126495 205.624329,255.620285 
	C205.422836,255.880325 204.901855,256.249420 204.102127,256.769653 
z"/>
<path fill="#303030" opacity="1.000000" stroke="none" 
	d="
M255.004822,272.445892 
	C251.210464,272.447205 247.914856,272.447205 243.855392,272.447205 
	C243.855392,264.060455 243.769302,256.138702 244.001450,248.226273 
	C244.022415,247.511459 246.081512,246.293076 247.216812,246.266144 
	C254.371750,246.096512 261.540924,245.992264 268.690247,246.264526 
	C276.510071,246.562347 281.180328,251.867981 280.996704,259.672394 
	C280.818237,267.256989 276.123077,272.100739 268.489288,272.372589 
	C264.165344,272.526581 259.832458,272.428925 255.004822,272.445892 
M244.972229,260.429718 
	C244.975113,261.919983 245.092072,263.420502 244.959763,264.898651 
	C244.543365,269.550232 246.997559,271.005371 250.994949,269.902832 
	C254.051239,269.059845 256.904785,267.481812 260.425842,265.985352 
	C258.539307,264.592316 257.278015,263.660950 255.972946,262.697266 
	C260.842377,258.182739 260.812927,257.042999 255.997177,252.723907 
	C255.524384,252.299850 254.914871,251.786819 254.810394,251.231934 
	C254.016022,247.012985 250.601471,247.512283 248.226471,248.388733 
	C246.721436,248.944153 245.648041,251.613953 245.097855,253.540207 
	C244.572784,255.378540 244.976593,257.482178 244.972229,260.429718 
z"/>
<path fill="#2A2A2A" opacity="1.000000" stroke="none" 
	d="
M248.175507,213.006744 
	C254.155075,213.014847 259.654968,212.939346 265.150940,213.053787 
	C271.658051,213.189270 275.478516,217.006897 275.615051,223.289398 
	C275.753113,229.642960 271.750244,234.121033 265.329773,234.305847 
	C258.384796,234.505783 251.429581,234.351120 243.833832,234.351120 
	C243.833832,227.684875 243.678574,221.567230 244.005753,215.475464 
	C244.053345,214.589233 246.407333,213.826874 248.175507,213.006744 
z"/>
<path fill="#2A2A2A" opacity="1.000000" stroke="none" 
	d="
M244.972137,259.949463 
	C244.976593,257.482178 244.572784,255.378540 245.097855,253.540207 
	C245.648041,251.613953 246.721436,248.944153 248.226471,248.388733 
	C250.601471,247.512283 254.016022,247.012985 254.810394,251.231934 
	C254.914871,251.786819 255.524384,252.299850 255.997177,252.723907 
	C260.812927,257.042999 260.842377,258.182739 255.972946,262.697266 
	C257.278015,263.660950 258.539307,264.592316 260.425842,265.985352 
	C256.904785,267.481812 254.051239,269.059845 250.994949,269.902832 
	C246.997559,271.005371 244.543365,269.550232 244.959763,264.898651 
	C245.092072,263.420502 244.975113,261.919983 244.972137,259.949463 
z"/>
</svg>